<svg xmlns="http://www.w3.org/2000/svg" viewBox="0 0 182 182">
  <circle cx="91" cy="91" r="91" fill="#191b25" />
  <g transform="translate(28.72 28.09) scale(0.7057)" fill="#ededed">
    <path d="M8.32228 148.903C8.87036 146.687 10.065 144.194 11.1001 142.366C11.4254 141.79 11.7058 142.24 11.9447 141.859C12.4145 141.107 12.52 140.268 13.0228 139.528C13.1885 139.291 13.6847 139.864 13.8445 139.608C14.7272 138.18 15.1436 136.672 15.892 135.187C16.5796 133.819 17.2315 132.506 17.9002 131.124C20.803 125.156 23.5075 119.127 26.3087 112.988C27.4417 110.504 29.2716 107.673 30.1013 104.976C30.1981 104.659 29.5783 104.615 29.5574 104.538C29.2469 103.345 30.2221 104.1 30.6123 103.573C32.1623 101.466 33.2966 98.8784 34.0268 96.5338C34.3364 95.5342 32.854 96.0472 33.8632 95.3342C33.9322 95.2842 34.4087 95.7684 34.58 95.5311C34.967 94.9927 35.3366 93.8157 35.5755 93.372C36.0385 92.5191 36.0943 92.3691 36.4532 91.5285C36.9489 90.3811 37.809 89.131 38.1958 87.8396C38.2767 87.5631 37.5383 87.6649 37.6139 87.2015C37.6899 86.7375 38.2068 85.6446 38.5034 85.3284C38.8006 85.011 39.1988 85.3659 39.3334 85.3441C40.4634 85.1728 39.7573 83.362 39.7958 83.184C40.5404 79.9388 42.342 77.6436 43.5346 74.8129C44.4456 72.6464 45.1765 70.2672 46.0835 68.2198C47.1589 65.799 48.3583 63.87 49.3168 61.4761C49.4186 61.2239 48.5996 61.2199 48.7223 60.9117C49.7218 58.4044 50.8082 55.9581 52.0989 53.5973C52.5081 52.8434 52.9142 52.1497 53.3589 51.4289C53.5491 51.1216 53.9728 51.8082 54.1989 51.5179C55.5548 49.7645 58.1289 47.1649 56.0078 44.8377C56.7127 43.5278 57.5415 41.9639 58.6107 41.0138C59.3034 40.393 59.6217 41.4373 59.7699 40.3678C59.803 40.1299 59.1039 40.1393 59.1965 39.8036C59.6032 38.3552 60.4681 36.9749 60.8015 35.5064C60.8654 35.2127 60.3187 35.044 60.264 34.9211C59.8321 33.9024 61.5709 33.4417 61.7822 33.2366C63.3179 31.7859 63.6964 30.3715 64.6673 28.6843C64.8942 28.2975 63.9638 28.389 64.1702 27.9856C64.5295 27.2942 64.9717 26.5441 65.5139 25.8196C65.7695 25.4876 65.9835 25.1833 66.5311 24.6484C66.6868 24.5032 66.849 24.3505 67.1733 24.1235C67.5204 23.9309 67.889 23.5116 69.326 23.3861C70.0357 23.3359 71.0226 23.6079 71.6233 24.0461C72.2508 24.4843 72.5436 24.9152 72.7389 25.2269C73.1018 25.8502 73.158 26.1702 73.2301 26.4343C73.4268 27.3867 73.3659 27.6911 73.3654 28.1111C73.3499 28.4949 73.3173 28.8318 73.2782 29.1565C73.2634 29.275 73.2477 29.4025 73.2305 29.5252C73.1602 30.0174 72.5064 29.5744 72.4392 29.8081C72.1438 30.8317 73.3608 31.0964 73.054 32.0855C72.9895 32.2946 72.4412 32.1474 72.3785 32.1828C71.3937 32.7158 72.7086 33.2966 72.7265 33.4569C72.9815 35.4007 71.431 36.4233 71.3962 38.2082C71.3926 38.4229 72.1527 38.045 72.1006 38.6359C71.7945 42.0586 71.0656 45.5514 70.0552 48.8321C69.8898 49.3617 69.7082 49.9288 69.5273 50.4455C69.3285 51.023 68.8921 50.4994 68.8211 50.5245C67.7056 50.9463 68.9658 51.5945 68.9785 51.7977C69.0419 53.4015 67.6386 54.5982 69.0188 55.9552C67.1642 62.3012 66.6912 68.8936 63.903 74.9622C63.8692 75.0395 63.245 74.7538 63.1803 74.9086C62.3936 76.777 63.4931 76.6189 64.4606 78.1771C64.704 78.5664 62.9867 79.2322 62.8578 79.2948C62.3831 79.5247 61.4794 78.9849 61.3778 79.0743C60.5712 79.8161 63.8237 80.3782 63.569 81.5617C63.5557 81.5975 62.9959 81.314 62.9155 81.4005C62.6642 81.6662 62.832 82.0314 62.5625 82.2893C61.9407 82.8774 60.3196 82.7925 61.003 84.0447C61.0924 84.2038 62.9654 84.3927 62.6488 85.439C62.5227 85.8477 62.149 87.7288 61.9166 88.2312C61.6859 88.7265 61.1738 88.2418 61.1403 88.2735C60.0567 89.5166 59.8481 88.9168 58.5437 89.3679C57.2408 89.8342 60.0247 90.2263 60.2687 90.5803C60.5135 90.926 59.6453 91.8374 59.3694 92.0345C59.0923 92.2363 58.7845 91.8444 58.6102 92.0399C57.4599 93.3759 59.8301 92.9916 60.1607 93.575C60.4162 94.04 60.3483 94.3951 60.1277 94.6958C59.6711 95.3419 58.5765 95.7782 58.2985 96.4543C58.1845 96.7381 58.6972 96.5936 58.6882 96.8608C58.6553 97.8912 57.8896 98.3995 58.3041 99.6112C58.3665 99.8417 59.4923 100.811 58.5722 101.21C58.4396 101.277 57.9205 101.052 57.8046 101.431C57.711 101.681 57.7184 102.117 57.7319 102.147C57.7296 102.148 57.6179 102.102 57.6695 102.107C57.7115 102.102 57.8317 102.061 57.9403 101.985C58.2432 101.749 57.5673 101.089 58.0668 101.175C58.3215 101.188 58.115 101.836 58.6301 101.792C59.1476 101.758 60.3097 100.983 60.7102 100.672C61.1394 100.35 60.5253 99.9888 60.5353 99.9287C60.5868 99.5896 61.215 98.7411 61.2756 98.6944C63.5818 96.8967 66.0594 95.4527 68.4315 93.8041C69.6347 92.9691 70.8565 92.0313 71.9402 90.9859C72.194 90.7431 71.5812 90.3618 71.6155 90.3193C72.368 89.3349 72.7892 91.3359 73.8127 91.2846C72.8441 90.2861 73.376 90.1755 73.9388 89.5196C74.2099 89.2022 73.6973 88.9279 73.6915 88.8617C73.6408 87.8507 74.6274 88.4046 74.8481 88.5025C75.6569 88.8652 75.4072 87.8608 75.9517 88.1002C76.4918 88.3381 76.505 89.3326 77.1192 88.8192C76.9804 88.2922 75.6988 87.664 76.0393 87.1155C77.3318 85.035 81.3333 83.1035 82.8532 82.0216C84.3693 80.9404 84.7822 80.495 85.7409 79.9609C87.4763 78.9968 86.3153 78.6904 86.9971 77.5902C87.6864 76.4863 88.6825 78.7153 89.1351 79.0064C89.5844 79.3001 89.408 78.7728 89.7482 78.8612C90.0875 78.9502 89.9404 79.5055 90.397 79.2806C90.8511 79.0571 91.3781 77.4985 91.1898 76.9716C90.7956 75.8507 89.5745 75.2998 90.888 74.8082C90.9639 74.7808 91.1476 75.4255 91.4185 75.2955C93.5496 74.254 95.4864 72.8195 97.6112 71.7808C97.8998 71.6419 98.0837 72.3663 98.2558 72.2922C100.085 71.5023 98.8226 70.9805 98.9349 69.3005C99.7441 70.8457 100.846 71.3468 102.03 70.5296C102.759 70.0302 102.202 69.5 102.363 68.7449C102.409 68.5189 103.233 68.5865 103.125 68.2325C102.797 67.0603 101.56 66.3165 103.152 65.8909C103.223 65.8743 103.386 66.5248 103.604 66.4287C104.989 65.8441 104.49 64.7116 105.924 63.725C106.488 63.3479 107.402 63.0244 108.451 62.8021C108.738 62.7381 109.016 62.69 109.293 62.6558C109.635 62.6035 109.946 62.5768 110.303 62.5753C110.518 62.5709 110.736 62.5798 110.962 62.6101C111.077 62.6256 111.183 62.6448 111.313 62.6749C111.465 62.7087 111.62 62.755 111.777 62.8181C112.396 63.0348 113.056 63.7161 113.235 64.3451C113.246 64.3781 113.256 64.4108 113.265 64.4431C111.605 65.2968 111.814 66.1632 112.766 67.3924C112.338 68.3362 111.881 69.3512 111.286 70.0334C111.071 70.2852 110.688 69.8217 110.615 69.8275C109.466 69.92 110.415 70.8642 110.344 71.0827C109.619 73.2366 107.787 74.1938 107.408 76.4454C107.396 76.5248 108.425 77.4072 107.308 77.2887C107.233 77.2789 107.115 76.3745 106.526 77.1372C105.92 77.9238 104.273 78.9912 103.976 80.4599C103.91 80.8072 104.305 82.1222 103.21 82.1679C103.063 82.1724 102.811 81.8632 102.559 81.8414C101.766 81.7637 102.732 82.7483 101.514 82.4488C100.299 82.1454 98.9901 82.4543 98.8253 84.003C98.8179 84.0515 99.4879 84.9575 99.2128 85.2941C98.7611 85.8466 98.023 86.4485 97.5886 87.0308C97.3832 87.3069 98.0501 87.5378 98.0236 87.5928C96.9247 89.6548 95.4563 90.5829 93.7374 92.3764C93.4098 92.7193 93.3572 94.2766 92.2417 94.5306C91.0271 94.7997 89.0264 92.0159 88.3028 94.2118C88.0076 95.0968 90.5807 98.5821 87.9009 98.4858C86.3921 101.264 83.758 102.799 82.4087 105.717C82.3488 105.847 82.9855 106.918 82.7683 107.164C82.4442 107.528 81.8511 107.398 81.6049 107.648C80.5542 108.699 80.0994 110.012 79.1542 111.075C78.798 111.476 78.4729 110.981 78.0525 111.455C77.6317 111.929 77.9448 112.724 77.124 113.173C76.5026 113.51 74.9074 113.074 74.2319 113.632C75.376 114.595 74.9814 115.036 74.6248 116.108C74.5568 116.314 75.099 116.471 75.0877 116.585C75.0507 117.059 74.4869 117.071 74.4799 117.545C74.4778 117.659 74.8729 117.983 74.8937 118.094C75.0872 119.052 73.5441 119.135 73.2768 119.148C72.2579 119.201 72.5743 119.866 72.0123 120.086C71.4508 120.305 71.651 119.462 71.1267 119.823C70.0459 120.563 69.0871 121.881 68.2633 122.862C67.9376 123.254 68.6866 123.413 68.6523 123.479C68.1231 124.408 66.8859 124.784 67.5716 126.095C64.3795 124.458 67.4358 126.804 65.9384 127.537C65.8193 127.594 64.4337 126.666 64.5317 126.158C64.6302 125.649 65.468 125.439 65.5722 124.707C65.5977 124.533 64.9303 122.885 64.9308 122.734C64.9367 121.556 66.9471 123.016 67.0837 123.064C68.5739 123.56 67.9294 121.692 68.0151 121.401C68.4009 120.08 69.3466 119.465 69.7158 118.405C69.9622 117.71 68.7402 116.637 69.1209 116.244C70.3838 114.942 72.5424 115.877 72.0832 113.313C71.9854 112.766 70.3758 111.933 72.2812 111.794C72.4001 111.787 74.0049 111.831 73.7287 110.885C73.6936 110.766 73.2888 110.443 73.3132 110.343C73.485 109.681 74.0665 109.615 74.3356 108.965C74.6017 108.318 74.8881 107.491 75.5095 106.997C75.8837 106.698 77.0096 106.836 77.3329 106.81C78.2548 106.747 77.8088 105.519 78.6976 105.727C79.5912 105.935 80.0902 107.324 81.1556 106.848C80.129 105.978 79.1056 105.048 78.0874 104.155C79.5292 102.427 81.2577 100.955 82.6283 99.1318C82.7965 98.9057 82.0511 98.6819 82.2166 98.4283C82.9119 97.3662 84.0098 96.8091 84.6649 95.647C85.1628 94.7546 85.2609 93.3916 85.765 92.4361C87.3724 92.8808 87.9435 91.3032 88.7576 90.4863C89.0416 90.2005 89.3495 90.4742 89.6292 90.3329C90.6773 89.7925 89.299 89.3496 89.3111 88.985C89.3738 87.4132 91.8683 89.2203 92.7203 87.9903C92.7684 87.9232 92.0628 86.1487 92.0613 85.9825C92.0461 84.9073 92.6001 86.2186 93.0168 85.8742C93.765 85.2611 94.51 84.931 94.8046 83.7473C94.8885 83.4011 94.5468 82.1577 95.5708 82.1126C95.7046 82.1071 96.1098 82.4707 96.1763 82.4352C97.3429 81.764 95.9809 80.7382 95.9446 79.822C95.9096 78.9041 97.4889 78.7469 97.8887 78.7755C98.929 78.8423 97.9341 79.3457 97.9834 79.4233C98.5937 80.3207 98.9065 79.602 99.3414 79.1559C100.742 80.0718 101.167 79.3211 99.7837 78.6929C99.6323 78.6247 99.4768 79.1006 99.3414 79.1559C98.3457 77.7419 98.7032 76.8983 100.546 76.9627C101.41 76.9908 101.835 77.8384 102.425 76.4854C102.686 75.881 101.607 75.4133 101.69 74.7524C101.869 73.258 103.704 72.4887 104.322 71.2476C104.538 70.8091 103.753 70.8549 103.88 70.5465C104.195 69.7557 105.031 69.3274 105.266 68.4788C105.288 68.3997 104.626 68.2189 104.758 67.9859C105.233 67.1292 105.741 66.4181 106.194 65.7237C106.298 65.5696 106.402 65.4091 106.494 65.2581C106.587 65.1069 106.651 65.0091 106.713 64.8957C106.767 64.8069 106.795 64.7413 106.783 64.8605C106.778 64.9283 106.763 65.0254 106.76 65.2535C106.76 65.5277 106.772 65.9795 107.004 66.6241C107.006 66.6294 107.008 66.6347 107.01 66.64C107.243 67.3806 108.085 68.4586 108.951 68.8941C109.378 69.132 109.793 69.2646 110.127 69.3339C110.443 69.3976 110.613 69.4095 110.789 69.4192C111.135 69.4311 111.245 69.4154 111.301 69.4262C111.358 69.4335 111.332 69.4595 111.291 69.4952C111.069 69.6517 110.548 69.9777 110.155 70.1453C108.705 70.7616 106.228 71.2317 105.027 72.3335C104.257 73.0413 104.818 73.4586 104.704 74.0846C104.496 75.2883 102.324 74.9274 102.019 74.8511C102.008 74.8487 102.657 74.1902 102.062 74.201C101.423 73.7923 102.025 74.843 102.019 74.8511C101.822 74.7988 100.238 75.7714 100.025 76.0893C99.9054 76.2633 100.367 76.6988 100.298 76.78C98.656 78.6949 96.7896 80.3226 94.6218 81.6386C94.5792 81.6557 94.2027 81.0632 94.1076 81.1106C92.7619 81.7647 92.5568 83.0135 91.9224 84.1607C91.2944 85.303 90.4391 85.7662 89.1332 85.2728C88.5151 85.9582 87.1608 86.3631 86.3719 86.5842C85.5835 86.8047 86.3533 87.9318 86.3186 87.9942C85.2461 89.9631 83.8355 90.1033 82.0832 91.3707C81.2564 91.965 79.8037 93.4032 79.0379 94.2205C78.4493 94.8556 77.8149 94.9622 77.3284 95.6229C77.2619 95.7123 77.7297 96.1123 77.7189 96.1512C77.4842 97.2788 76.8769 95.8629 76.5658 95.7756C75.4214 95.4687 74.8031 95.3126 74.1733 96.4111C74.0244 96.6665 74.798 98.7872 74.4794 99.208C74.0835 99.7349 73.7854 98.9919 73.3946 99.549C73.369 99.5847 73.5412 99.8021 73.481 100.008C73.4597 100.074 73.4152 100.139 73.3348 100.198C71.8034 101.327 70.0058 102.433 68.4218 103.738C68.202 103.916 68.9483 104.281 68.6392 104.547C67.1649 105.796 65.5481 107.058 63.1881 108.078C62.5907 108.323 62.6744 107.669 62.4753 107.604C62.1596 107.512 61.8991 107.55 61.6702 107.662C61.4139 107.788 61.1702 107.994 60.9429 108.212C60.4372 108.678 59.8136 109.217 59.5179 109.292C58.8176 109.476 57.8058 109.737 56.1398 109.446C54.5481 109.235 52.3858 107.829 51.5331 106.483C49.8404 103.783 50.1598 102.76 50.0302 101.841C50.0038 100.175 50.2402 99.3285 50.4386 98.4239C50.854 96.7271 51.3277 95.2891 51.3833 93.5814C51.3848 93.5047 51.1884 93.1724 51.0581 92.7728C50.8671 92.2441 50.8125 91.5581 51.6042 91.3708C51.6934 91.3531 53.0838 90.9982 52.3353 90.2964C52.2887 90.2515 51.5611 90.4875 51.7671 89.8486C51.9757 89.1966 51.7685 88.0578 52.6721 87.3172C52.959 87.0732 54.3541 86.6876 53.5404 85.6126C53.481 85.5493 51.5066 83.7417 53.1646 83.6205C53.4378 83.5993 55.0691 84.0409 54.4435 82.8396C54.3209 82.6129 53.8777 82.8811 53.7571 82.3266C53.5713 81.4715 54.236 80.5368 53.7086 79.4178C53.6141 79.2248 52.6481 78.2715 53.6213 77.8841C53.7736 77.8241 54.2879 78.1119 54.4142 77.8256C55.0196 76.4549 54.9727 74.8842 55.6666 73.5111C55.9108 73.0268 56.745 73.4808 57.0988 72.996C57.4529 72.5093 57.9136 71.4804 57.6268 70.8309C57.3396 70.1828 55.789 70.4918 55.8549 69.6278C56.1415 65.8711 57.7395 62.4337 58.6151 58.8168C58.7448 58.2812 58.1439 58.6227 58.2976 57.8283C58.869 54.8805 59.3988 49.7527 60.9523 47.4346C61.0228 47.3307 61.0897 47.2417 61.1534 47.1658C62.2233 45.8521 62.421 48.1695 63.028 46.7607C63.3347 46.0475 61.8189 44.9407 61.7991 44.7485C61.5805 42.8999 62.5235 41.8109 62.5447 40.2145C62.5485 39.8844 61.8228 40.0955 61.8337 39.8134C61.862 38.8648 62.3075 37.9363 62.3717 37.0476C62.3992 36.6442 61.8716 36.648 61.9576 36.3001C62.1582 35.4528 62.464 34.7299 63.0324 33.9614C63.0842 33.8903 63.6811 34.4617 63.7664 33.8396C63.9011 32.836 64.471 31.6324 63.9838 30.5663C63.836 30.2422 62.6465 30.2656 63.46 29.5541C63.5572 29.4632 64.0721 29.4805 64.2556 29.3513C64.3915 29.2551 64.3456 29.0561 63.8068 28.7596C63.7542 28.7336 63.6074 28.6353 63.4334 28.5506C63.2651 28.4886 63.0393 28.3386 62.9443 28.7273C62.9251 28.8336 62.9134 28.9807 62.9646 29.2781C63.0248 29.5654 63.0888 29.9919 63.5804 30.8665C63.8418 31.3095 64.2582 31.9244 65.0261 32.5783C65.8308 33.2765 67.1127 33.9333 68.4084 34.1277C71.0913 34.463 72.2332 33.6498 72.8427 33.3762C74.0097 32.6816 74.0297 32.4734 74.1628 32.2925C74.2479 32.1224 74.1985 32.0336 74.106 31.9353C73.999 31.8167 73.6234 31.5871 73.2726 31.5212C72.9981 31.4634 72.7666 31.4721 72.7607 31.6267C72.7634 31.6757 73.3813 31.9051 73.3015 32.1375C73.001 32.9716 72.3247 34.0667 71.9256 35.2792C71.8211 35.6023 72.6379 35.4646 72.4663 35.9322C71.9835 37.2429 71.0464 38.7918 70.254 39.983C69.9616 40.4199 69.6178 39.8603 69.5477 39.8686C68.3997 40.0212 69.4392 40.9004 69.4211 41.12C69.2981 42.469 68.3287 43.1011 67.9874 44.2439C67.8918 44.5585 68.5577 44.6075 68.5816 44.6898C68.797 45.5345 67.9833 44.6063 67.69 44.9526C66.8847 45.878 66.3672 47.1531 65.9531 48.2789C65.7985 48.7006 66.6672 48.5352 66.5201 48.9116C65.6683 51.1327 64.6106 53.368 63.316 55.3371C63.069 55.7119 62.6674 55.2336 62.5134 55.2672C61.4322 55.5117 62.1984 56.8078 62.2161 57.0588C62.2505 57.438 62.2004 57.7075 62.1092 57.9316C61.9438 58.3398 61.6288 58.5845 61.4615 59.1245C60.2207 63.1551 57.9058 67.7414 56.1713 71.3075C53.9272 75.9249 51.88 79.4066 50.1048 83.9826C49.9918 84.2722 50.799 84.2717 50.7104 84.5251C49.5298 87.7953 47.9421 90.8308 46.7985 94.1232C46.7035 94.3928 47.5129 94.2852 47.3822 94.7271C47.1189 95.6353 46.6247 96.719 46.0514 97.5082C45.7729 97.8937 45.4536 97.0875 45.1847 97.4803C44.5564 98.3969 44.0628 99.4503 43.7381 100.524C43.6011 100.982 44.5428 100.597 44.3129 101.171C42.763 105.079 41.2949 108.939 38.8087 112.506C38.638 112.75 37.1877 112.421 37.2103 113.102C37.5683 113.301 38.0116 113.482 38.4057 113.667C36.2844 119.412 33.5096 124.821 31.1238 130.466C31.0229 130.706 31.9113 130.584 31.72 131.047C31.0561 132.659 30.4564 134.342 29.7039 135.896C29.2069 136.931 28.6519 137.904 27.9483 138.851C27.772 139.087 26.5583 138.442 26.4249 139.33C26.4028 139.487 26.0916 140.756 26.2409 141.183C26.2658 141.241 26.9451 141.26 26.8088 141.652C26.0051 143.931 24.9327 146.252 23.7044 148.36C23.507 148.694 23.0191 148.071 22.8735 148.306C21.8335 150.012 21.562 152.191 20.4266 153.627C19.6847 154.559 18.6968 153.799 17.4277 154.029C17.3489 154.038 17.2642 154.179 17.1554 154.263C17.0445 154.367 16.9182 154.303 16.6621 154.385C16.6076 154.4 16.5481 154.408 16.4828 154.408C15.8567 154.415 15.2119 154.356 14.5566 154.28C13.4349 154.188 12.309 153.779 11.1564 153.94C11.0912 153.944 11.0422 154.05 11.0099 154.101C10.9288 154.22 10.9201 154.447 10.8378 154.556C10.8174 154.581 10.7918 154.607 10.7615 154.587C10.7541 154.58 10.7461 154.573 10.7403 154.533C10.7391 154.52 10.7382 154.503 10.738 154.48C10.7382 154.465 10.7393 154.441 10.7415 154.41C10.7462 154.366 10.7383 154.387 10.7708 154.17C10.7795 154.116 10.7906 154.05 10.8129 153.946C10.8243 153.894 10.8386 153.832 10.8602 153.752C10.8689 153.72 10.8605 153.748 10.8879 153.653C10.9692 153.44 10.9679 153.206 11.4849 152.413C11.777 152.039 12.2299 151.314 13.6546 150.797C15.1103 150.216 17.1568 150.934 17.8092 151.629C18.5628 152.312 18.7392 152.771 18.8958 153.076C19.0357 153.384 19.0896 153.573 19.1323 153.722C19.1425 153.758 19.1514 153.792 19.1593 153.824C19.1613 153.831 19.1621 153.835 19.1634 153.84C19.1659 153.85 19.1683 153.86 19.1706 153.869C19.1751 153.888 19.1793 153.906 19.1833 153.923C19.1911 153.958 19.1978 153.989 19.2037 154.018C19.2154 154.076 19.2241 154.124 19.2311 154.166C19.2452 154.25 19.2532 154.31 19.2593 154.36C19.2713 154.459 19.2759 154.518 19.2796 154.564C19.2906 154.715 19.2895 154.708 19.2924 154.749C19.2962 154.806 19.2984 154.813 19.3011 154.829C19.3212 154.893 19.3428 154.858 19.3672 154.861C19.3732 154.857 19.3795 154.853 19.3857 154.827C19.3886 154.808 19.3923 154.807 19.3934 154.729C19.3896 154.658 19.408 154.75 19.3695 154.347C19.363 154.292 19.3545 154.224 19.3383 154.127C19.33 154.079 19.3198 154.022 19.3052 153.953C19.2979 153.919 19.2895 153.881 19.2794 153.839C19.2762 153.888 19.2766 153.575 18.8826 152.795C18.641 152.409 18.342 151.676 16.9616 150.929C15.5588 150.077 13.0922 150.62 12.3473 151.357C11.4762 152.05 11.2842 152.517 11.1044 152.82C10.9452 153.127 10.8819 153.311 10.831 153.456C10.8067 153.528 10.7882 153.589 10.7728 153.642C10.7607 153.683 10.766 153.665 10.7626 153.677C10.7592 153.689 10.7559 153.701 10.7528 153.712C10.7465 153.735 10.7409 153.756 10.7357 153.776C10.715 153.856 10.7014 153.917 10.6904 153.968C10.6491 154.167 10.6409 154.241 10.631 154.305C10.5972 154.534 10.5979 154.496 10.5871 154.532C10.5786 154.55 10.5708 154.559 10.563 154.565C10.5319 154.588 10.5002 154.578 10.4653 154.568C10.3957 154.546 10.3152 154.497 10.2207 154.431C10.1936 154.411 10.1242 154.249 10.0282 154.052C9.99802 153.991 9.9767 153.746 9.96187 153.551C9.94633 153.353 9.93457 153.174 9.9187 153.03C9.88734 152.742 9.84291 152.551 9.77907 152.437C9.6224 152.148 8.85545 152.402 8.69687 151.873C8.54132 151.352 9.20385 151.135 9.05076 150.525C8.89432 149.923 8.08549 149.879 8.32228 148.903ZM82.8215 87.5986C81.8653 87.532 83.2911 89.4563 83.5195 88.5351C83.5288 88.4883 82.8698 87.6008 82.8215 87.5986ZM82.6664 102.081C84.0562 102.029 83.238 100.564 82.1935 100.568C81.1579 100.563 82.2432 102.099 82.6664 102.081ZM77.3332 109.987C78.6564 109.668 76.115 107.414 75.9292 108.741C75.9175 108.818 77.2561 110.006 77.3332 109.987ZM18.0448 151.125C18.011 151.124 17.7961 151.634 17.8209 151.659C18.4388 152.189 18.8668 151.171 18.0448 151.125ZM72.0722 117.86C72.6397 117.888 72.8305 116.808 72.126 116.772C71.5594 116.743 71.3663 117.826 72.0722 117.86ZM57.1482 96.2502C57.1868 96.2388 57.2974 95.8604 57.0989 95.8254C56.4578 95.7187 56.5233 96.3118 57.1482 96.2502ZM62.0131 130.357C63.6043 128.596 66.6847 129.245 64.8163 131.05C64.4778 131.377 64.7553 129.705 64.1848 130.008C63.1424 130.564 64.0548 132.233 62.6221 132.504C62.3613 132.552 61.9175 130.454 62.0127 130.352C62.0128 130.354 62.0129 130.356 62.0131 130.357ZM80.6994 85.6187C80.6684 85.6031 80.2125 85.9337 80.222 85.9664C80.4638 86.7481 81.3817 86.083 80.6994 85.6187ZM63.5797 73.3508C63.6521 73.3351 63.9877 72.069 63.9358 72.0144C62.8639 71.0877 62.1822 73.6444 63.5797 73.3508ZM113.235 64.5193C113.542 64.8611 113.7 65.3759 113.773 65.6556C113.85 65.9586 113.849 66.2566 113.781 66.5272C113.673 66.9591 113.321 67.2932 112.768 67.3899C113.038 66.6266 113.489 66.2487 113.235 64.5193Z" />
    <path d="M82.7408 130.108C83.0113 128.516 83.8628 127.145 84.6298 126.238C84.8677 125.959 85.1726 126.305 85.3552 126.121C85.7069 125.773 85.72 125.284 86.0991 124.978C86.228 124.875 86.7385 125.35 86.8597 125.236C87.3082 124.815 87.5527 124.324 87.8384 123.839C87.9641 123.626 88.1062 123.401 88.2694 123.203C90.8833 120.037 93.1275 117.005 95.5471 113.904C96.3444 112.884 97.7254 111.93 98.2566 110.688C98.3181 110.542 97.7802 110.284 97.7568 110.232C97.4072 109.428 98.3006 110.23 98.6022 110.071C99.7971 109.44 100.603 108.387 101.085 107.316C101.289 106.861 100.05 106.581 100.872 106.56C100.928 106.558 101.366 107.023 101.498 106.952C101.798 106.79 102.042 106.258 102.221 106.094C102.568 105.783 102.606 105.72 102.864 105.375C103.075 105.099 103.391 104.855 103.67 104.578C103.864 104.386 104.039 104.178 104.146 103.934C104.201 103.806 103.578 103.569 103.618 103.33C103.659 103.092 104.043 102.665 104.28 102.601C104.516 102.537 104.872 102.905 104.985 102.947C105.933 103.308 105.246 101.971 105.27 101.883C105.747 100.304 107.166 99.7191 108.05 98.5773C108.722 97.7086 109.248 96.6288 109.924 95.8333C110.732 94.8868 111.663 94.283 112.376 93.3084C112.451 93.2063 111.771 92.8467 111.863 92.7209C112.838 91.3785 113.943 90.1641 115.389 89.2221C115.534 89.1283 115.907 89.7153 116.083 89.6473C117.147 89.2191 119.165 88.8502 117.349 86.5309C117.873 86.0845 118.503 85.5226 119.34 85.4379C119.881 85.3809 120.183 86.1392 120.26 85.575C120.278 85.4483 119.705 85.1458 119.771 84.9841C120.043 84.3107 120.692 83.8716 120.889 83.144C120.929 82.9939 120.476 82.6522 120.425 82.5555C120.308 82.3286 120.339 82.2067 120.445 82.1486C120.719 81.9913 121.458 82.2321 121.567 82.2152C122.732 82.0074 122.959 81.3127 123.55 80.6837C123.688 80.5385 122.965 80.2034 123.077 80.0454C123.666 79.2318 124.438 78.496 125.379 78.0088C125.591 77.9011 125.912 78.5003 126.037 78.4728C126.574 78.3518 125.779 77.4149 126.29 77.2792C126.396 77.2505 126.748 77.6822 126.803 77.7132C127.671 78.2001 126.89 77.0702 126.924 76.9957C127.308 76.0627 128.684 76.7144 129.271 75.9838C129.344 75.8929 128.7 75.5068 128.944 75.279C129.312 74.9354 129.776 74.5753 130.301 74.2733C132.22 73.1935 134.035 73.1883 135.494 73.3694C135.794 73.4088 135.672 73.9623 135.701 74.0235C136.149 74.9808 136.122 73.6081 136.209 73.543C136.873 73.0682 137.711 74.0973 137.938 72.4209C139.147 72.4597 140.302 72.2518 141.453 72.0242C143.314 71.6566 145.25 71.3719 147.231 72.0632C147.272 72.0762 147.264 72.7502 147.345 72.7734C148.307 73.0667 148.054 72.0447 148.619 70.7314C148.766 70.4013 149.358 71.9133 149.397 72.0254C149.57 72.4344 149.447 73.4372 149.502 73.5155C149.934 74.1329 149.768 70.8361 150.393 70.8255C150.412 70.8307 150.34 71.4386 150.391 71.4984C150.551 71.6861 150.697 71.4442 150.855 71.6536C151.221 72.1395 151.289 73.7409 151.835 72.8261C151.907 72.7085 151.872 70.8312 152.427 70.9479C152.642 70.9918 153.639 71.0397 153.911 71.1982C154.174 71.3507 153.913 71.9271 153.93 71.9554C154.545 72.836 154.237 73.1319 154.391 74.3471C154.515 75.5576 154.894 72.7792 155.096 72.4965C155.305 72.2144 155.7 72.964 155.774 73.2167C155.848 73.4676 155.611 73.8071 155.69 73.9575C156.184 74.9439 156.334 72.6806 156.697 72.3129C157.596 71.461 157.489 73.6112 157.887 73.9793C158.005 74.0833 158.061 73.5975 158.203 73.6047C158.765 73.646 158.783 74.361 159.584 74.1002C159.706 74.0514 160.781 73.2092 160.603 74.1743C160.573 74.3113 160.2 74.6909 160.332 74.9062C160.526 75.2264 160.943 75.6422 161.325 75.7058C161.604 75.7498 161.869 74.8864 161.978 75.2948C162.023 75.4747 161.517 75.7221 161.62 76.0232C161.727 76.3269 162.254 76.7 162.453 76.8166C162.47 76.8271 162.488 76.8317 162.506 76.8315C162.722 76.8504 162.937 76.3391 162.976 76.318C163.238 76.1907 163.907 76.3258 163.947 76.3674C166.133 78.2127 166.005 80.8391 166.973 82.7515C167.048 82.9087 167.67 82.6048 167.689 82.6267C168.131 83.1267 166.257 83.1779 165.777 83.7192C167.098 83.2966 166.921 83.5925 167.168 83.9487C167.171 83.9529 167.174 83.9569 167.178 83.9607C167.324 84.1682 167.793 83.9286 167.85 83.938C168.75 84.2394 167.725 84.7164 167.513 84.7724C166.739 85.0537 167.668 85.297 167.129 85.4427C166.595 85.5467 165.841 85.2078 165.82 85.5665C166.301 85.7407 167.629 85.527 167.796 85.9218C167.947 86.3001 167.946 86.7445 167.846 87.1679C167.262 89.1108 165.692 89.611 165.163 90.0805C164.418 90.6586 164.251 90.907 163.732 91.114C162.796 91.4649 163.673 91.9882 163.468 92.71C163.261 93.425 162.057 91.3644 161.682 91.0109C161.31 90.655 161.559 91.1228 161.312 90.9586C161.067 90.7931 161.027 90.3907 160.782 90.4426C160.54 90.4938 160.568 91.5911 160.805 92.0741C161.316 93.094 162.239 93.8912 161.479 93.918C161.435 93.9188 161.175 93.3409 161.024 93.3696C159.848 93.6071 158.887 94.2033 157.746 94.4261C157.588 94.4561 157.33 93.7999 157.234 93.8105C156.244 93.9113 157.134 94.7299 157.396 96.0939C156.868 95.1038 156.351 94.4393 155.893 94.1889C155.65 94.0507 155.428 94.0302 155.229 94.1419C154.888 94.3315 155.319 94.9523 155.344 95.5461C155.35 95.7262 154.849 95.4087 154.97 95.7456C155.355 96.8512 156.215 97.8705 155.307 97.7553C155.267 97.748 155.073 97.1355 154.956 97.1515C154.204 97.2446 154.653 98.374 153.987 98.8387C153.463 99.2039 152.171 98.9432 151.494 99.0766C150.797 97.2666 150.381 97.9042 150.605 99.2481C150.173 99.3519 149.752 99.5856 149.291 99.5532C149.132 99.5425 149.035 98.981 148.997 98.9299C148.417 98.1252 148.672 99.4147 148.599 99.4943C147.862 100.232 146.875 99.7251 146.245 100.576C146.187 100.653 146.132 100.741 146.079 100.842C146.058 100.885 146.419 102.186 145.864 101.33C145.828 101.271 145.948 100.588 145.495 100.684C145.038 100.78 144.007 100.341 143.568 101.116C143.464 101.303 143.376 102.465 142.843 101.724C142.771 101.623 142.714 101.238 142.599 101.046C142.234 100.435 142.482 101.779 141.966 100.719C141.448 99.6584 140.799 98.9325 140.383 99.8553C140.369 99.8826 140.479 100.967 140.279 100.997C139.962 101.043 139.47 100.925 139.149 101.003C138.994 101.041 139.238 101.674 139.213 101.692C138.239 102.29 137.36 101.857 136.189 101.813C135.974 101.803 135.54 102.812 135.012 102.171C134.435 101.467 134.321 98.1484 133.464 99.0891C133.266 99.3037 133.24 100.762 133.042 101.604C132.898 102.237 132.655 102.521 132.197 101.651C130.857 102.404 129.38 101.5 128.058 102.458C127.999 102.501 127.957 103.683 127.802 103.688C127.572 103.694 127.376 103.171 127.21 103.158C126.515 103.087 125.96 103.632 125.302 103.646C125.052 103.653 125.063 103.083 124.767 103.09C124.469 103.098 124.369 103.859 123.925 103.556C123.587 103.324 123.094 101.859 122.674 101.735C122.85 103.22 122.57 103.225 122.134 103.679C122.05 103.766 122.216 104.27 122.18 104.338C122.033 104.627 121.811 104.221 121.677 104.532C121.644 104.607 121.706 105.114 121.683 105.203C121.486 105.986 120.865 104.907 120.758 104.718C120.349 104.004 120.286 104.681 120.007 104.415C119.729 104.148 120.043 103.732 119.739 103.587C119.112 103.287 118.372 103.461 117.779 103.511C117.542 103.534 117.786 104.19 117.754 104.209C117.287 104.441 116.705 103.782 116.6 105.163C115.834 101.719 116.347 105.537 115.563 104.924C115.501 104.875 115.23 103.235 115.412 102.967C115.594 102.7 115.976 103.176 116.223 102.763C116.281 102.666 116.489 101.073 116.531 100.973C116.866 100.19 117.228 102.645 117.267 102.778C117.7 104.206 117.982 102.483 118.094 102.352C118.614 101.753 119.152 102.038 119.593 101.602C119.883 101.319 119.711 99.7023 119.968 99.7203C120.818 99.7794 121.395 101.992 121.929 99.9421C122.044 99.5047 121.653 97.764 122.43 99.0727C122.478 99.1553 123.089 100.365 123.241 99.5302C123.261 99.425 123.193 98.9117 123.23 98.863C123.481 98.5469 123.721 98.9314 124.008 98.6946C124.292 98.4582 124.628 98.1168 125.003 98.2439C125.231 98.3195 125.632 99.2388 125.766 99.4591C126.148 100.094 126.303 98.9474 126.595 99.7389C126.889 100.534 126.705 101.829 127.253 102.293C127.087 100.959 126.939 99.5854 126.783 98.2416C127.821 98.1465 128.894 98.4336 129.914 98.2221C130.041 98.1945 129.804 97.4987 129.936 97.4507C130.492 97.2516 131.07 97.6848 131.631 97.3887C131.844 97.2732 132.052 97.0051 132.251 96.7338C132.458 96.4617 132.656 96.1863 132.878 96.0515C133.418 97.5219 134.038 96.8859 134.568 96.9332C134.752 96.9494 134.815 97.3556 134.966 97.4645C135.532 97.8649 135.062 96.5682 135.153 96.3338C135.534 95.3328 136.16 98.3479 136.811 98.1412C136.848 98.131 136.945 96.437 136.98 96.3251C137.208 95.5972 137.156 96.8721 137.412 96.9425C137.876 97.071 138.257 97.3894 138.641 96.8096C138.754 96.6381 138.857 95.5647 139.313 96.2687C139.373 96.3608 139.48 96.893 139.517 96.9169C140.173 97.3029 139.779 95.6434 139.928 95.0105C140.075 94.3782 140.821 95.3969 141.005 95.6981C141.478 96.479 140.916 96.1106 140.925 96.197C141.03 97.2288 141.325 96.9685 141.607 96.9806C142.086 98.5822 142.433 98.3814 141.898 96.9861C141.84 96.8339 141.68 97.0399 141.607 96.9806C141.403 95.3366 141.716 95.0314 142.582 96.3736C142.99 97.0015 143.034 97.8638 143.578 97.379C143.825 97.1589 143.375 96.0934 143.529 95.717C143.717 95.2548 144.105 95.2697 144.513 95.3231C144.875 95.3651 145.247 95.4391 145.499 95.2723C145.697 95.1412 145.285 94.6149 145.413 94.5049C145.75 94.2115 146.246 94.5423 146.554 94.1794C146.582 94.1459 146.281 93.5523 146.398 93.503C147.275 93.1171 148.188 93.2361 149.09 92.896C149.528 92.7317 150.14 92.0857 150.586 91.967C151.357 91.7644 152.654 92.1964 153.125 91.6701C153.426 91.3334 153.017 90.8042 152.941 90.3302C152.875 89.9382 153.063 89.9108 153.322 90.0132C153.723 90.1177 154.239 90.468 154.358 90.5566C154.366 90.5614 154.093 90.9141 154.461 91.0838C154.944 91.6141 154.356 90.5615 154.358 90.5566C154.497 90.6551 155.284 90.3361 155.354 90.141C155.391 90.035 155.013 89.5356 155.038 89.4905C155.668 88.4225 156.464 87.7003 157.493 87.3231C157.516 87.3226 157.9 87.9071 157.948 87.8983C158.635 87.7873 158.442 86.8624 158.5 86.1749C158.558 85.4857 158.911 85.4125 159.894 86.1503C160.051 85.8176 160.736 85.9081 161.138 85.9589C161.544 86.0077 160.575 85.0488 160.566 85.0199C160.433 84.5337 160.482 84.4295 160.583 84.4619C160.681 84.5231 160.818 84.601 160.697 85.2013C160.697 85.2005 160.698 85.1997 160.698 85.1989C160.751 85.1249 160.735 85.0187 160.672 85.0275C160.609 85.0288 160.512 85.1713 160.458 85.3395C160.421 85.4468 160.465 85.5486 160.522 85.6391C160.528 85.4765 160.551 85.3221 160.389 85.1861C160.352 85.155 159.779 85.3541 159.753 85.3487C158.972 85.2436 160.436 84.985 160.672 84.8472C161.529 84.3491 161.968 84.022 161.405 83.7727C161.273 83.7048 159.184 84.1967 159.026 84.1392C158.819 84.0474 159.549 83.8131 159.311 83.7266C159.292 83.7198 158.86 83.9078 158.841 83.815C158.75 83.3875 158.793 82.951 158.63 82.8341C158.612 82.8195 158.059 83.3234 158.032 83.3215C157.95 83.3195 157.957 83.3395 158.019 83.252C157.654 82.9311 157.437 82.6634 157.291 82.4093C157.19 82.2228 157.601 81.8767 157.661 81.7273C158.014 80.8158 156.975 81.7503 156.932 81.7521C156.326 81.7241 156.174 81.466 155.946 81.1743C155.732 80.8914 155.459 80.5985 154.967 80.7482C154.898 80.7608 154.197 82.0796 154.355 80.826C154.37 80.7434 154.494 79.4493 154.141 80.2728C154.12 80.3249 154.086 80.9938 153.916 80.8892C153.746 80.7851 153.382 81.1684 153.202 80.4102C153.145 80.1712 153.071 78.8675 152.66 79.8548C152.62 79.9216 152.026 82.191 151.972 80.5919C151.962 80.3289 152.088 78.643 151.668 79.4906C151.59 79.6554 151.703 80.0363 151.509 80.2644C151.229 80.6168 150.837 80.1595 150.501 80.9157C150.439 81.0493 150.205 82.1986 149.976 81.3365C149.939 81.2015 149.984 80.6362 149.869 80.577C149.309 80.2942 148.744 80.7086 148.136 80.3726C147.918 80.2552 147.94 79.338 147.691 79.117C147.436 78.8966 146.961 78.7131 146.771 79.1563C146.584 79.5992 147.02 81.0072 146.688 81.1668C145.653 81.6768 144.506 81.4979 143.31 81.4603C142.801 81.4635 142.308 81.4717 141.814 81.5272C141.54 81.5571 141.854 82.0293 141.451 82.11C139.956 82.4185 137.486 83.2545 136.387 82.331C135.47 81.5997 136.31 80.7602 135.651 80.5171C135.318 80.4061 135.433 82.1123 135.413 82.1723C135.112 82.8001 134.811 82.1429 134.888 82.3553C134.914 82.3939 135.222 82.9667 135.266 83.0157C135.267 83.0172 135.268 83.0184 135.268 83.0192C135.355 83.1047 135.104 82.8985 134.955 83.0882C134.892 83.1725 135.239 83.5642 135.137 83.5959C134.894 83.6806 134.549 83.6929 133.976 83.5561C133.923 83.5449 133.634 82.9265 133.428 83.0846C133.097 83.3422 132.358 83.39 132.337 84.123C132.33 84.3445 133.186 85.1762 132.355 84.8487C132.18 84.7821 131.213 83.7187 131.826 84.8695C131.921 85.0669 132.683 86.6933 131.662 86.2122C131.396 86.0819 130.377 85.4551 130.374 85.7313C130.378 85.7708 130.922 86.1258 130.859 86.2878C130.615 86.864 130.16 87.2677 129.903 87.8595C129.837 88.0163 130.493 88.2774 130.379 88.4973C130.128 88.9789 129.668 89.389 129.187 89.7313C129.057 89.8226 128.925 89.9091 128.797 89.9897C128.574 90.1279 128.271 89.6375 128.214 89.6121C127.289 89.1937 128.173 90.181 128.167 90.3046C128.126 91.0546 127.363 90.9966 127.127 91.5231C127.062 91.6656 127.608 91.9916 127.631 92.0506C127.843 92.6421 127.139 91.7345 126.916 91.8051C126.286 92.0015 125.926 92.5035 125.62 92.9884C125.511 93.1642 126.214 93.4578 126.11 93.6101C125.498 94.5272 124.713 95.354 123.721 95.9203C123.533 96.0259 123.184 95.571 123.059 95.5216C122.186 95.1745 122.853 96.2795 122.88 96.4284C123.004 97.1097 122.515 96.9256 122.337 97.2872C121.474 99.0553 119.735 100.68 118.455 101.963C116.79 103.637 115.248 104.747 114.004 106.606C113.924 106.724 114.603 107.061 114.542 107.168C113.793 108.426 112.746 109.43 112.001 110.675C111.94 110.776 111.882 110.879 111.825 110.984C111.762 111.098 112.442 111.363 112.36 111.56C112.197 111.965 111.85 112.38 111.417 112.595C111.206 112.703 110.88 112.12 110.677 112.235C110.205 112.503 109.855 112.905 109.655 113.382C109.571 113.586 110.346 113.739 110.191 113.972C109.146 115.568 108.188 117.164 106.333 118.235C106.206 118.308 104.928 117.58 105.002 117.974C105.327 118.219 105.724 118.486 106.08 118.737C104.726 121.162 102.801 123.181 101.287 125.476C101.224 125.572 101.988 125.812 101.87 126C101.182 127.093 100.729 128.261 99.4262 128.979C99.2975 129.053 98.1467 128.311 98.1373 128.746C98.138 128.81 98.0502 129.247 98.1506 129.531C98.1665 129.581 98.1877 129.627 98.2153 129.666C98.2453 129.705 98.8524 129.924 98.7833 130.089C98.3778 131.03 97.7761 131.881 97.0381 132.559C96.9181 132.668 96.3655 132.242 96.2742 132.319C95.6241 132.877 95.8181 133.801 95.1135 134.044C94.6441 134.196 93.5315 133.806 92.3606 133.762C92.1918 133.771 92.1455 133.919 91.4769 133.874C89.7837 133.833 87.9608 133.417 86.1559 133.368C85.9616 133.364 85.9402 133.659 85.8823 133.971C85.8288 134.293 85.7091 134.552 85.2219 133.95C85.1414 133.797 84.9139 132.818 84.6374 132.616C84.4421 132.446 83.7259 132.585 83.4954 132.256C83.2689 131.917 83.8877 131.752 83.6551 131.315C83.4218 130.882 82.6273 130.813 82.7408 130.108ZM162.892 86.1388C163.542 86.3497 161.535 85.0431 161.95 85.4495C161.972 85.4712 162.861 86.1273 162.892 86.1388ZM129.145 100.219C129.714 101.203 129.778 99.6248 129.365 98.8616C128.956 98.0984 128.972 99.9203 129.145 100.219ZM124.893 101.581C125.496 102.341 125.125 98.9674 124.69 99.7169C124.664 99.7594 124.857 101.537 124.893 101.581ZM92.3502 132.593C92.3192 132.584 92.2151 132.795 92.2449 132.807C92.9308 133.151 93.1253 132.766 92.3502 132.593ZM120.654 102.972C120.866 103.408 121.244 102.826 120.981 102.284C120.769 101.848 120.392 102.429 120.654 102.972ZM157.487 75.077C157.495 75.0413 157.332 74.9468 157.267 75.1382C157.056 75.7516 157.35 75.6661 157.487 75.077ZM113.257 103.92C114.366 103.914 115.369 106.615 114.138 106.446C113.916 106.416 114.495 105.503 114.19 105.285C113.632 104.889 113.511 106.677 112.884 105.803C112.77 105.643 113.193 103.914 113.258 103.916C113.258 103.917 113.257 103.919 113.257 103.92ZM165.33 87.6666C165.361 87.6807 165.529 87.474 165.504 87.4517C164.918 86.9566 164.625 87.3041 165.33 87.6666ZM146.573 72.7881C146.553 72.7215 145.93 72.7309 145.915 72.7962C145.755 74.0657 146.983 74.0535 146.573 72.7881ZM151.465 99.0323C151.47 99.8515 151.162 100.065 150.607 99.2485C150.897 99.1939 151.174 99.0958 151.465 99.0323Z" />
  </g>
</svg>
